<svg xmlns="http://www.w3.org/2000/svg" xml:space="preserve" id="timeslot-logo-svg" x="0" y="0" aria-label="Time Slot" style="enable-background:new 0 0 200 35" version="1.1" viewBox="0 0 200 35"><style>#timeslot-logo .st1{fill:#fff;stroke:none}</style><g id="timeslot-logo"><path id="logo-bg" d="M0 0h200v35H0z" class="st0" style="fill:#0e1b38;stroke:none"/><g id="logo-text"><path d="M53.91 11.25h-5.16v14.78H45.9V11.25h-5.16V8.97H53.9v2.28zM59.15 26.03H56.3V8.97h2.85v17.06zM66.73 8.97l4.91 13.12h.07l4.92-13.12h3.69v17.06h-2.85v-5.81l.28-7.39-.07-.01-5.06 13.22h-1.91l-5.04-13.18-.07.01.28 7.36v5.81h-2.85V8.97h3.7zM94.38 18.36h-7.46v5.39h8.66v2.29H84.06V8.97h11.43v2.29h-8.58v4.82h7.46v2.28zM113.2 21.64c0-.71-.26-1.29-.79-1.74s-1.46-.86-2.79-1.21c-1.91-.5-3.37-1.16-4.4-1.99-1.03-.82-1.54-1.9-1.54-3.24 0-1.38.57-2.51 1.71-3.4s2.6-1.34 4.4-1.34c1.88 0 3.38.51 4.52 1.52s1.69 2.22 1.65 3.64l-.02.07h-2.73c0-.88-.3-1.58-.89-2.13s-1.44-.81-2.54-.81c-1.04 0-1.84.23-2.4.68s-.84 1.04-.84 1.75c0 .65.3 1.19.91 1.61s1.61.83 3.01 1.22c1.84.49 3.23 1.17 4.18 2.04s1.43 1.97 1.43 3.32c0 1.42-.57 2.55-1.71 3.39s-2.63 1.26-4.48 1.26c-1.78 0-3.34-.47-4.69-1.42s-2-2.24-1.96-3.88l.02-.07h2.74c0 1.04.36 1.81 1.08 2.33s1.65.77 2.8.77c1.05 0 1.88-.21 2.46-.64s.87-1.01.87-1.73zM121.89 23.75h7.84v2.29h-10.69V8.97h2.85v14.78zM144.85 19.03c0 2.09-.65 3.81-1.96 5.19s-3.01 2.06-5.09 2.06c-2.05 0-3.71-.69-4.99-2.06s-1.92-3.1-1.92-5.19v-3.07c0-2.08.64-3.8 1.92-5.18s2.94-2.06 4.97-2.06c2.09 0 3.79.69 5.1 2.06s1.97 3.1 1.97 5.18v3.07zm-2.84-3.09c0-1.42-.38-2.59-1.14-3.5s-1.79-1.37-3.09-1.37c-1.25 0-2.24.46-2.96 1.37s-1.09 2.08-1.09 3.5v3.09c0 1.44.36 2.62 1.09 3.53s1.72 1.38 2.98 1.38c1.3 0 2.33-.46 3.09-1.37s1.13-2.09 1.13-3.54v-3.09zM159.25 11.25h-5.16v14.78h-2.85V11.25h-5.16V8.97h13.16v2.28z" class="st1"/></g></g></svg>