<?xml version="1.0" encoding="UTF-8"?><svg id="Layer_2" xmlns="http://www.w3.org/2000/svg" viewBox="0 0 24 24"><defs><style>.cls-1{letter-spacing:0em;}.cls-2{font-family:Roboto-Medium, Roboto;font-size:13.75px;}.cls-2,.cls-3{fill:#50575e;}</style></defs><g id="Layer_1-2"><text class="cls-2" transform="translate(3.59 19.92)"><tspan class="cls-1" x="0" y="0">T</tspan><tspan x="7.84" y="0">S</tspan></text></g><g id="icon"><path class="cls-3" d="M5,4c.55,0,1-.45,1-1V1c0-.55-.45-1-1-1s-1,.45-1,1V3c0,.55,.45,1,1,1Z"/><path class="cls-3" d="M19,4c.55,0,1-.45,1-1V1c0-.55-.45-1-1-1s-1,.45-1,1V3c0,.55,.45,1,1,1Z"/><path class="cls-3" d="M21,2v1c0,1.1-.9,2-2,2s-2-.9-2-2v-1H7v1c0,1.1-.9,2-2,2s-2-.9-2-2v-1H0V24H24V2h-3Zm1,20H2V8H22v14Z"/></g></svg>